<?xml version="1.0" encoding="utf-8"?>
<!-- Generator: Adobe Illustrator 27.5.0, SVG Export Plug-In . SVG Version: 6.00 Build 0)  -->
<svg version="1.1" xmlns="http://www.w3.org/2000/svg" xmlns:xlink="http://www.w3.org/1999/xlink" x="0px" y="0px"
	 viewBox="0 0 500 500" style="enable-background:new 0 0 500 500;" xml:space="preserve">
<style type="text/css">
	.st0{display:none;}
	.st1{display:inline;fill:none;stroke:#C7B299;stroke-width:2;stroke-miterlimit:10;}
	.st2{display:inline;fill:#FF0000;stroke:#FF0000;stroke-miterlimit:10;}
	.st3{display:inline;stroke:#000000;stroke-miterlimit:10;}
	.st4{fill:none;stroke:#000000;stroke-width:10;stroke-miterlimit:10;}
</style>
<g id="Layer_4" class="st0">
	<circle class="st1" cx="248.24" cy="248.84" r="111.54"/>
</g>
<g id="Layer_1" class="st0">
	<circle class="st2" cx="250" cy="250" r="127.5"/>
</g>
<g id="Layer_3" class="st0">
	<path class="st3" d="M250.5,88c0,325,0,325,0,325"/>
	<path class="st3" d="M88,250.5c325,0,325,0,325,0"/>
	<path class="st3" d="M135.6,365.4C365.4,135.6,365.4,135.6,365.4,135.6"/>
	<path class="st3" d="M188.31,100.37c124.37,300.26,124.37,300.26,124.37,300.26"/>
	<path class="st3" d="M135.6,135.6C365.4,365.4,365.4,365.4,365.4,365.4"/>
	<path class="st3" d="M100.37,188.31c300.26,124.37,300.26,124.37,300.26,124.37"/>
	<path class="st3" d="M100.37,312.69c300.26-124.37,300.26-124.37,300.26-124.37"/>
	<path class="st3" d="M188.31,400.63c124.37-300.26,124.37-300.26,124.37-300.26"/>
</g>
<g id="Layer_2">
	<path class="st4" d="M144.41,356.44c-17.16-16.86-17.98-41.38-18.44-55.37c-0.76-22.94,6.25-24.42,6.44-50.78
		c0.19-26.48-6.87-28.31-5.79-51.69c0.67-14.5,1.72-37.32,17.79-53.54c16.11-16.26,38.99-17.47,54.01-18.26
		c23-1.22,24.67,5.44,51.22,5.34c27.53-0.11,29.45-7.28,52.56-5.99c13.48,0.75,36.96,2.06,53.59,18.91
		c16.66,16.89,17.64,40.46,18.21,54.19c0.94,22.78-5.98,24.37-6.21,51.04c-0.22,26.33,6.49,27.97,5.55,51.44
		c-0.64,15.93-1.56,38.87-17.55,54.72c-15.92,15.77-38.72,16.55-54.24,17.08c-23.76,0.81-25.75-6.25-51.91-6
		c-25.59,0.24-27.09,7.03-49.85,6.46C185.26,373.62,161.29,373.02,144.41,356.44z"/>
	<path class="st4" d="M100.01,250.46c-0.34-23.67,16.43-41.57,26.77-52.62c15.6-16.66,21.23-12.98,39.69-31.38
		c18.82-18.76,15.24-24.85,32.31-40.62c11.03-10.18,28.01-25.86,50.77-25.85c22.22,0.01,38.75,14.97,50.77,25.85
		c17.46,15.8,14.07,21.77,33.23,40.62c19.15,18.83,25.03,15.34,40.61,32.31c10.37,11.3,25.82,28.12,25.85,50.77
		c0.03,23.48-16.55,40.93-26.77,51.69c-16.01,16.85-21.96,13-40.61,31.38c-18.47,18.2-14.92,24.23-32.31,40.62
		c-12.12,11.42-28.28,26.65-49.85,26.77c-21.23,0.12-37.23-14.45-50.77-26.77c-17.12-15.58-14.08-20.85-33.23-39.69
		c-19.23-18.92-24.45-15.73-39.69-32.31C115.29,288.74,100.32,272.48,100.01,250.46z"/>
	<g>
	</g>
	<g>
	</g>
	<g>
	</g>
	<g>
	</g>
	<g>
	</g>
	<g>
	</g>
	<g>
	</g>
	<g>
	</g>
	<g>
	</g>
	<g>
	</g>
	<g>
	</g>
	<g>
	</g>
	<g>
	</g>
	<g>
	</g>
	<g>
	</g>
</g>
</svg>
